<svg xmlns="http://www.w3.org/2000/svg" xmlns:xlink="http://www.w3.org/1999/xlink" viewBox="0,0,256,256" width="512px" height="512px" fill-rule="nonzero"><g fill="#ffffff" fill-rule="nonzero" stroke="none" stroke-width="1" stroke-linecap="butt" stroke-linejoin="miter" stroke-miterlimit="10" stroke-dasharray="" stroke-dashoffset="0" font-family="none" font-weight="none" font-size="none" text-anchor="none" style="mix-blend-mode: normal"><g transform="scale(8,8)"><path d="M9.70508,3.99609c-0.62562,-0.0023 -1.26774,0.13059 -1.89258,0.47266c-1.64947,0.90184 -2.63237,2.36013 -2.78906,3.91016c-0.09296,0.91956 0.09964,1.84713 0.52539,2.70312c-1.43928,1.61192 -2.54883,3.21784 -2.54883,4.91797c0,1.33999 0.76964,2.48996 1.77344,3.50977c0.4778,0.48541 1.02772,0.9467 1.61719,1.38477l-0.04883,0.05664c0.71594,0.62732 1.6582,2.45997 1.6582,4.04883c0,1.2491 0.61714,2.29207 1.42188,2.98242c0.80474,0.69035 1.78167,1.1066 2.7207,1.39453c1.87808,0.57586 3.69727,0.62305 3.69727,0.62305h0.0293h0.03125c0,0 1.8797,-0.04833 3.81836,-0.62109c0.96933,-0.28638 1.97411,-0.69823 2.80469,-1.38477c0.83058,-0.68654 1.47656,-1.7336 1.47656,-2.99414c0,-1.58886 0.94227,-3.42151 1.6582,-4.04883l-0.04883,-0.05664c0.58947,-0.43807 1.13939,-0.89935 1.61719,-1.38477c1.0038,-1.0198 1.77344,-2.16978 1.77344,-3.50977c0,-1.69974 -1.10996,-3.30602 -2.54883,-4.91797c0.42575,-0.85599 0.61835,-1.78356 0.52539,-2.70312c-0.1567,-1.55003 -1.13959,-3.00832 -2.78906,-3.91016c-0.83312,-0.45609 -1.69778,-0.53939 -2.51172,-0.42773c-0.81394,0.11165 -1.57696,0.41875 -2.20508,0.74609c-0.15949,0.08312 -0.29272,0.171 -0.43945,0.25781c-1.09145,-0.61611 -2.05384,-1.04492 -3.03125,-1.04492c-0.97741,0 -1.9398,0.42881 -3.03125,1.04492c-0.14673,-0.08682 -0.27996,-0.17469 -0.43945,-0.25781c-0.62812,-0.32734 -1.39114,-0.63444 -2.20508,-0.74609c-0.20348,-0.02791 -0.4106,-0.04416 -0.61914,-0.04492zM16,6c0.15061,0 0.61881,0.14407 1.21094,0.39648c-0.20404,0.26194 -0.26478,0.60807 -0.16211,0.92383c0,0 1.60951,4.54328 7.31641,5.66016c0.30579,0.06004 0.6221,-0.0259 0.85547,-0.23242c1.10047,1.36473 1.7793,2.65886 1.7793,3.25195c0,0.50701 -0.38568,1.28091 -1.19922,2.10742c-0.81354,0.82651 -1.99061,1.67421 -3.26367,2.41211c-1.27306,0.7379 -2.64388,1.37077 -3.83984,1.81055c-1.19596,0.43977 -2.26419,0.66992 -2.69727,0.66992c-0.43307,0 -1.5013,-0.23015 -2.69727,-0.66992c-1.19596,-0.43977 -2.56678,-1.07265 -3.83984,-1.81055c-1.27306,-0.7379 -2.45013,-1.5856 -3.26367,-2.41211c-0.81354,-0.82651 -1.19922,-1.60041 -1.19922,-2.10742c0,-0.59309 0.67878,-1.88718 1.7793,-3.25195c0.23337,0.20653 0.54968,0.29246 0.85547,0.23242c5.70689,-1.11687 7.31641,-5.66016 7.31641,-5.66016c0.10267,-0.31576 0.04193,-0.66189 -0.16211,-0.92383c0.59213,-0.25242 1.06033,-0.39648 1.21094,-0.39648zM9.75586,6.00391c0.11797,0.00295 0.23776,0.01466 0.35937,0.0332c0.48647,0.07416 0.99628,0.26703 1.48828,0.52344c0.61893,0.32256 0.77978,0.50299 1.08008,0.74414c-0.32073,0.75982 -1.37284,2.59487 -4.86719,3.50781c-0.56709,-0.73212 -0.87572,-1.5105 -0.80273,-2.23242c0.08855,-0.87597 0.58329,-1.71526 1.75781,-2.35742c0.29579,-0.16193 0.63047,-0.2276 0.98438,-0.21875zM22.24414,6.00391c0.35391,-0.00885 0.68859,0.05682 0.98438,0.21875c1.17453,0.64216 1.66926,1.48145 1.75781,2.35742c0.07298,0.72192 -0.23564,1.50031 -0.80273,2.23242c-3.49435,-0.91294 -4.54645,-2.74799 -4.86719,-3.50781c0.3003,-0.24115 0.46114,-0.42158 1.08008,-0.74414c0.49201,-0.25641 1.00181,-0.44928 1.48828,-0.52344c0.12162,-0.01854 0.24141,-0.03025 0.35938,-0.0332zM11,7c0,0 -0.59474,-0.00058 -1.32031,0.14453c-0.72557,0.14511 -1.65102,0.41274 -2.38672,1.14844l1.41406,1.41406c0.2643,-0.2643 0.83885,-0.49668 1.36328,-0.60156c0.52443,-0.10489 0.92969,-0.10547 0.92969,-0.10547zM21,7v2c0,0 0.40526,0.00058 0.92969,0.10547c0.52443,0.10489 1.09898,0.33726 1.36328,0.60156l1.41406,-1.41406c-0.7357,-0.7357 -1.66115,-1.00332 -2.38672,-1.14844c-0.72557,-0.14511 -1.32031,-0.14453 -1.32031,-0.14453zM7.58789,14.76367l-1.17578,1.61719c0,0 4.76446,3.61914 9.58789,3.61914c4.82343,0 9.58789,-3.61914 9.58789,-3.61914l-1.17578,-1.61719c0,0 -4.65354,3.23633 -8.41211,3.23633c-3.75857,0 -8.41211,-3.23633 -8.41211,-3.23633zM9.71094,22.92578c0.98701,0.50529 1.97841,0.94418 2.90039,1.2832c1.31363,0.48304 2.43724,0.79102 3.38867,0.79102c0.95143,0 2.07504,-0.30798 3.38867,-0.79102c0.92198,-0.33902 1.91338,-0.77791 2.90039,-1.2832c-0.17977,0.66137 -0.28906,1.35858 -0.28906,2.07422c0,0.63296 -0.24566,1.03268 -0.75195,1.45117c-0.50629,0.41849 -1.28253,0.76952 -2.0957,1.00977c-1.61094,0.47594 -3.24979,0.53207 -3.28125,0.5332c-0.02958,-0.0011 -1.60011,-0.05634 -3.14258,-0.5293c-0.77846,-0.23869 -1.52052,-0.58727 -2.00391,-1.00195c-0.48339,-0.41468 -0.72461,-0.81849 -0.72461,-1.46289c0,-0.71564 -0.10929,-1.41285 -0.28906,-2.07422z"></path></g></g></svg>