<svg xmlns="http://www.w3.org/2000/svg" xmlns:xlink="http://www.w3.org/1999/xlink" viewBox="0,0,256,256" width="500px" height="500px" fill-rule="nonzero"><g fill="#ffffff" fill-rule="nonzero" stroke="none" stroke-width="1" stroke-linecap="butt" stroke-linejoin="miter" stroke-miterlimit="10" stroke-dasharray="" stroke-dashoffset="0" font-family="none" font-weight="none" font-size="none" text-anchor="none" style="mix-blend-mode: normal"><g transform="scale(5.12,5.12)"><path d="M14.79883,3c-0.23509,0.00758 -0.47136,0.02951 -0.70703,0.06641c-0.62846,0.0984 -1.2571,0.30802 -1.86719,0.66016c-2.53536,1.46353 -3.95926,3.74312 -4.18945,6.14258c-0.11941,1.24469 0.07952,2.50899 0.55664,3.71094c-1.74297,1.75061 -3.30259,3.55436 -4.4668,5.30664c-1.27337,1.91659 -2.125,3.76119 -2.125,5.53125c0,2.11572 1.24979,4.06818 3.01172,5.85156c1.27076,1.28623 2.84708,2.49624 4.55664,3.60938c1.47008,1.45959 2.81055,3.52598 2.81055,6.35156c0,1.96418 0.91337,3.54326 2.17774,4.62695c1.26436,1.0837 2.85418,1.74714 4.40234,2.18945c3.09632,0.88462 6.12891,0.875 6.12891,0.875c0,0 3.03063,0.0096 6.12695,-0.875c1.54816,-0.44231 3.13798,-1.10576 4.40234,-2.18945c1.26436,-1.0837 2.17773,-2.66277 2.17773,-4.62695c0,-3.05652 1.56674,-5.23417 3.17188,-6.70508l-0.00586,-0.00586c1.50104,-1.01441 2.89079,-2.09961 4.02734,-3.25c1.76193,-1.78338 3.01172,-3.73584 3.01172,-5.85156c0,-1.77006 -0.85163,-3.61466 -2.125,-5.53125c-1.1642,-1.75228 -2.72383,-3.55603 -4.4668,-5.30664c0.47712,-1.20195 0.67605,-2.46625 0.55664,-3.71094c-0.2302,-2.39945 -1.6541,-4.67904 -4.18945,-6.14258c-0.61008,-0.35214 -1.23873,-0.56176 -1.86719,-0.66016c-1.88538,-0.2952 -3.77914,0.40314 -5.24805,1.21094c-0.26117,0.14362 -0.48137,0.29704 -0.7207,0.44727c-1.87835,-1.03636 -3.51181,-1.72461 -4.93945,-1.72461c-1.42764,0 -3.0611,0.68825 -4.93945,1.72461c-0.23934,-0.15023 -0.45954,-0.30364 -0.7207,-0.44727c-1.28529,-0.70682 -2.8954,-1.33039 -4.54102,-1.27734zM25,5c0.57049,0 1.72132,0.35712 3.10938,1.02539c-0.4464,0.37187 -0.80859,0.70313 -0.80859,0.70313c-0.26842,0.26248 -0.36723,0.65319 -0.25586,1.01172c0,0 2.39281,7.37619 11.41016,9.23828c0.33489,0.06907 0.68186,-0.03775 0.91992,-0.2832c0.39083,-0.4034 0.73011,-0.83423 1.03711,-1.27734c1.50062,1.54634 2.8275,3.11419 3.79883,4.57617c1.16063,1.74691 1.78906,3.34689 1.78906,4.42383c0,1.28678 -0.86576,2.85641 -2.43555,4.44531c-1.56979,1.5889 -3.77979,3.16292 -6.1582,4.5293c-2.37841,1.36638 -4.92614,2.53149 -7.16797,3.3457c-2.24183,0.81421 -4.22437,1.26172 -5.23828,1.26172c-1.01392,0 -2.99645,-0.44751 -5.23828,-1.26172c-2.24183,-0.81421 -4.78956,-1.97932 -7.16797,-3.3457c-0.60045,-0.34495 -1.18838,-0.70395 -1.75977,-1.07227c-0.09167,-0.08876 -0.18395,-0.18569 -0.27539,-0.26953l-0.04687,0.05078c-1.56043,-1.02963 -2.97967,-2.12843 -4.07617,-3.23828c-1.56979,-1.5889 -2.43555,-3.15854 -2.43555,-4.44531c0,-1.07694 0.62843,-2.67692 1.78906,-4.42383c0.97133,-1.46198 2.29821,-3.02983 3.79883,-4.57617c0.307,0.44311 0.64628,0.87394 1.03711,1.27734c0.23806,0.24546 0.58503,0.35227 0.91992,0.2832c9.01734,-1.86209 11.41016,-9.23828 11.41016,-9.23828c0.11137,-0.35853 0.01256,-0.74924 -0.25586,-1.01172c0,0 -0.36219,-0.33125 -0.80859,-0.70312c1.38805,-0.66827 2.53888,-1.02539 3.10938,-1.02539zM15.09375,5.00195c0.21785,0.0043 0.43718,0.02571 0.6582,0.06055c0.8841,0.13935 1.78427,0.50641 2.625,0.96875c1.38378,0.76099 2.06471,1.43925 2.40625,1.75195c-0.56341,1.3863 -2.73953,5.49834 -9.02539,7.05469c-1.2491,-1.48635 -1.8858,-3.17862 -1.73242,-4.77734c0.1688,-1.75955 1.14558,-3.4161 3.19922,-4.60156c0.58112,-0.33542 1.2156,-0.46994 1.86914,-0.45703zM34.90625,5.00195c0.65354,-0.0129 1.28802,0.12161 1.86914,0.45703c2.05364,1.18547 3.03041,2.84202 3.19922,4.60156c0.15338,1.59872 -0.48332,3.29099 -1.73242,4.77734c-6.28586,-1.55635 -8.46198,-5.66839 -9.02539,-7.05469c0.34154,-0.3127 1.02247,-0.99097 2.40625,-1.75195c0.84073,-0.46234 1.7409,-0.8294 2.625,-0.96875c0.22103,-0.03484 0.44036,-0.05625 0.6582,-0.06055zM17.81641,6.63477c0,0 -1.09102,0.45655 -2.49414,1.39258c-0.10651,-0.0178 -0.21428,-0.02694 -0.32227,-0.02734c-1.0567,0.00116 -1.93016,0.82415 -1.99414,1.87891c-0.70788,0.67149 -1.4009,1.43984 -1.99414,2.33008l1.66406,1.10938c0.39086,-0.58654 0.84966,-1.10395 1.32422,-1.58789c0.30389,0.17609 0.64878,0.26905 1,0.26953c0.6345,-0.0009 1.23093,-0.30282 1.6073,-0.81364c0.37637,-0.51082 0.48803,-1.16992 0.3009,-1.7762c0.9736,-0.60706 1.69727,-0.9375 1.69727,-0.9375zM32.18359,6.63477l-0.78906,1.83789c0,0 0.72367,0.33044 1.69727,0.9375c-0.18713,0.60628 -0.07547,1.26538 0.3009,1.7762c0.37637,0.51082 0.9728,0.81274 1.6073,0.81364c0.35188,-0.00014 0.69749,-0.09311 1.00195,-0.26953c0.47421,0.48368 0.93167,1.00174 1.32227,1.58789l1.66406,-1.10937c-0.59324,-0.89024 -1.28626,-1.65858 -1.99414,-2.33008c-0.06398,-1.05476 -0.93744,-1.87775 -1.99414,-1.87891c-0.10798,0.0004 -0.21576,0.00954 -0.32227,0.02734c-1.40312,-0.93603 -2.49414,-1.39258 -2.49414,-1.39258zM10.01758,20.99414c-0.15723,-0.00095 -0.31247,0.03518 -0.45312,0.10547c0,0 -0.98625,0.4702 -1.7832,1.47852c-0.79695,1.00832 -1.4096,2.70089 -0.73047,4.73828c0.11299,0.33918 0.39838,0.59231 0.74862,0.664c0.35025,0.07169 0.71213,-0.04893 0.94932,-0.31644c0.23718,-0.2675 0.31361,-0.64123 0.2005,-0.98037c-0.13031,-0.39094 -0.19156,-0.73234 -0.20898,-1.03906c2.65988,1.62323 9.48001,5.35547 16.25977,5.35547c6.77976,0 13.59989,-3.73224 16.25977,-5.35547c-0.01743,0.30672 -0.07867,0.64812 -0.20898,1.03906c-0.11314,0.33915 -0.03671,0.71289 0.20047,0.98041c0.23718,0.26752 0.59909,0.38815 0.94934,0.31645c0.35026,-0.0717 0.63564,-0.32485 0.74862,-0.66405c0.67913,-2.03739 0.06648,-3.72996 -0.73047,-4.73828c-0.79695,-1.00832 -1.7832,-1.47852 -1.7832,-1.47852c-0.15005,-0.07525 -0.31662,-0.11152 -0.48437,-0.10547c-0.46224,0.01626 -0.85303,0.34735 -0.94499,0.80064c-0.09196,0.45329 0.13891,0.9105 0.55827,1.10561c0,0 0.51817,0.26769 0.98828,0.81055c-2.04175,1.25361 -9.06959,5.28906 -15.55273,5.28906c-6.48314,0 -13.51098,-4.03546 -15.55273,-5.28906c0.47011,-0.54286 0.98828,-0.81055 0.98828,-0.81055c0.42391,-0.19796 0.65393,-0.66336 0.55373,-1.12036c-0.1002,-0.457 -0.50385,-0.78346 -0.9717,-0.78589zM36.69336,36.05859c-0.53943,1.21401 -0.89844,2.59712 -0.89844,4.17188c0,1.38082 -0.54959,2.31151 -1.48047,3.10938c-0.93088,0.79787 -2.2696,1.38927 -3.64844,1.7832c-2.75768,0.78787 -5.57812,0.79883 -5.57812,0.79883c0,0 -2.8224,-0.01095 -5.58008,-0.79883c-1.37884,-0.39394 -2.71755,-0.98534 -3.64844,-1.7832c-0.93088,-0.79787 -1.48047,-1.72855 -1.48047,-3.10937c0,-1.52171 -0.33355,-2.86596 -0.8418,-4.05078c1.88416,0.97062 3.7899,1.80275 5.54297,2.43945c2.35914,0.85682 4.39534,1.38086 5.91992,1.38086c1.52458,0 3.56078,-0.52404 5.91992,-1.38086c1.82478,-0.66274 3.81439,-1.53833 5.77344,-2.56055z"></path></g></g></svg>