<svg xmlns="http://www.w3.org/2000/svg" xmlns:xlink="http://www.w3.org/1999/xlink" viewBox="0,0,256,256" width="512px" height="512px" fill-rule="nonzero"><g fill="#ffffff" fill-rule="nonzero" stroke="none" stroke-width="1" stroke-linecap="butt" stroke-linejoin="miter" stroke-miterlimit="10" stroke-dasharray="" stroke-dashoffset="0" font-family="none" font-weight="none" font-size="none" text-anchor="none" style="mix-blend-mode: normal"><g transform="scale(10.66667,10.66667)"><path d="M7.24609,1.99219c-0.97434,0 -1.88698,0.50915 -2.57422,1.20898c-0.68724,0.69983 -1.17187,1.61091 -1.17187,2.55859c0,0.46024 0.1177,0.87636 0.26953,1.27344c-1.54132,1.53751 -2.77344,3.233 -2.77344,4.9668c0,0.83569 0.52008,1.60638 1.24805,2.37109c0.606,0.63659 1.40687,1.257 2.27148,1.8418c0.01308,0.04126 0.03146,0.08066 0.05469,0.11719c0.57279,0.92386 0.92578,2.07589 0.92578,2.94922c0,1.31448 0.83975,2.30781 1.96875,2.88672c1.129,0.5789 2.56819,0.82617 4.03125,0.82617c1.46396,0 2.90242,-0.24735 4.03125,-0.82617c1.12883,-0.57882 1.96875,-1.57198 1.96875,-2.88672c0,-0.87333 0.35299,-2.02536 0.92578,-2.94922c0.02171,-0.03612 0.03877,-0.07484 0.05078,-0.11523c0.86606,-0.58549 1.66861,-1.20627 2.27539,-1.84375c0.72788,-0.76471 1.24805,-1.53543 1.24805,-2.37109c0,-1.73326 -1.23211,-3.42789 -2.77344,-4.96484c0.15219,-0.39756 0.26953,-0.81449 0.26953,-1.27539c0,-0.94768 -0.48659,-1.85876 -1.17383,-2.55859c-0.68723,-0.69983 -1.59987,-1.20898 -2.57422,-1.20898c-0.83108,0 -1.66123,0.28381 -2.36914,0.7207c-0.33803,-0.18009 -0.67528,-0.35769 -0.94727,-0.4707c-0.35509,-0.14754 -0.61859,-0.25 -0.93164,-0.25c-0.31252,0 -0.57837,0.10059 -0.93359,0.24805c-0.27169,0.11278 -0.6078,0.29227 -0.94531,0.47266c-0.70856,-0.43705 -1.53984,-0.7207 -2.37109,-0.7207zM7.24609,2.99219c0.88607,0 1.92631,0.58041 2.56641,1.22266c-0.99613,1.93488 -2.5404,2.99521 -4.4668,3.60938c-0.40518,-0.71475 -0.8457,-1.41483 -0.8457,-2.06445c0,-0.58632 0.34646,-1.30726 0.88672,-1.85742c0.54026,-0.55017 1.24972,-0.91016 1.85938,-0.91016zM11.49609,2.99219c-0.0011,0 0.24567,0.04591 0.54883,0.17188c0.12256,0.05092 0.30881,0.15669 0.45703,0.22852c-0.14321,0.13997 -0.27875,0.28257 -0.39648,0.43359c-0.11404,0.14668 -0.13736,0.3445 -0.06055,0.51367c1.18314,2.6084 3.29982,3.95705 5.73047,4.63477c0.22184,0.06198 0.45733,-0.0356 0.57031,-0.23633c0.12946,-0.23054 0.27408,-0.47495 0.41797,-0.72852c1.3102,1.38047 2.23242,2.83555 2.23242,3.99023c0,0.36434 -0.32757,1.00392 -0.97266,1.68164c-0.64509,0.67772 -1.56725,1.39616 -2.58984,2.04101c-2.04519,1.28971 -4.54331,2.26953 -5.9375,2.26953c-1.39362,0 -3.89218,-0.97981 -5.9375,-2.26953c-1.02266,-0.64486 -1.94468,-1.36329 -2.58984,-2.04101c-0.64516,-0.67773 -0.97266,-1.31734 -0.97266,-1.68164c0,-1.15543 0.92206,-2.61117 2.23242,-3.99219c0.14415,0.25411 0.28826,0.49948 0.41797,0.73047c0.11298,0.20073 0.34847,0.29831 0.57031,0.23633c2.43065,-0.67772 4.54733,-2.02637 5.73047,-4.63477c0.07681,-0.16918 0.0535,-0.36699 -0.06055,-0.51367c-0.11773,-0.15102 -0.25321,-0.29363 -0.39649,-0.43359c0.14817,-0.07177 0.33452,-0.17766 0.45703,-0.22852c0.30303,-0.12579 0.54834,-0.17187 0.54883,-0.17187zM15.74414,2.99219c0.60965,0 1.32106,0.35999 1.86133,0.91016c0.54026,0.55017 0.88672,1.2711 0.88672,1.85742c0,0.64963 -0.44052,1.34971 -0.8457,2.06445c-1.9264,-0.61416 -3.47067,-1.67449 -4.4668,-3.60937c0.6401,-0.64224 1.67839,-1.22266 2.56445,-1.22266zM7.71289,3.82031l-0.44531,0.22852c-0.09009,0.04621 -0.15615,0.08234 -0.23828,0.125c-0.15677,-0.10114 -0.33425,-0.17383 -0.53516,-0.17383c-0.552,0 -1,0.44 -1,1c0,0.06764 0.02601,0.12732 0.03906,0.19141c-0.14208,0.14545 -0.28368,0.30672 -0.43555,0.50586l-0.30273,0.39648l0.79492,0.60742l0.30469,-0.39844c0.11514,-0.15098 0.21002,-0.25794 0.30469,-0.36328c0.09487,0.03014 0.19022,0.06055 0.29492,0.06055c0.52976,0 0.95417,-0.42037 0.98828,-0.9375c0.08424,-0.04294 0.14406,-0.07467 0.24219,-0.125l0.44531,-0.22852zM15.2793,3.82031l-0.45703,0.88867l0.44531,0.22852c0.0975,0.05001 0.15645,0.08229 0.24023,0.125c0.03411,0.51713 0.45852,0.9375 0.98828,0.9375c0.10536,0 0.20148,-0.03003 0.29688,-0.06055c0.09467,0.10534 0.18955,0.2123 0.30469,0.36328l0.30469,0.39844l0.79492,-0.60742l-0.30273,-0.39648c-0.15249,-0.19996 -0.29483,-0.36194 -0.4375,-0.50781c0.01283,-0.06356 0.03906,-0.12241 0.03906,-0.18945c0,-0.56 -0.448,-1 -1,-1c-0.20064,0 -0.37656,0.07293 -0.5332,0.17383c-0.08214,-0.04266 -0.14819,-0.07879 -0.23828,-0.125zM4.58984,9.79297l-0.39648,0.30273c-0.39524,0.30147 -0.71195,0.50307 -0.93359,0.88867c-0.22164,0.38561 -0.26367,0.82944 -0.26367,1.50781v0.5h1v-0.5c0,-0.242 0.03645,-0.24428 0.05078,-0.38867c1.86267,1.5637 4.713,2.88867 7.44922,2.88867c2.72366,0 5.61873,-1.28077 7.48242,-2.83398c0.00587,0.1113 0.01758,0.18173 0.01758,0.33399v0.5h1v-0.5c0,-0.67837 -0.04398,-1.12221 -0.26562,-1.50781c-0.22164,-0.38561 -0.5364,-0.58721 -0.93164,-0.88867l-0.39648,-0.30273l-0.60742,0.79492l0.39844,0.30273c0.17038,0.12995 0.28175,0.21943 0.38281,0.30273c-1.63838,1.46247 -4.56832,2.79883 -7.08008,2.79883c-2.5038,0 -5.40398,-1.33721 -7.04492,-2.79492c0.10781,-0.09376 0.1355,-0.14483 0.34766,-0.30664l0.39844,-0.30273zM6.07422,17.16992c1.88343,1.0491 3.89028,1.82227 5.42188,1.82227c1.53196,0 3.53857,-0.77317 5.42188,-1.82227c-0.26115,0.70719 -0.42187,1.43363 -0.42187,2.10938c0,0.91226 -0.50541,1.52712 -1.42383,1.99805c-0.91842,0.47093 -2.22913,0.71484 -3.57617,0.71484c-1.34594,0 -2.65742,-0.2457 -3.57617,-0.7168c-0.91875,-0.4711 -1.42383,-1.08458 -1.42383,-1.99609c0,-0.67574 -0.16073,-1.40218 -0.42187,-2.10937z"></path></g></g></svg>